<svg width="80" height="20" viewBox="0 0 80 20" fill="none" xmlns="http://www.w3.org/2000/svg">
<rect width="80" height="20" rx="10" fill="#383B50"/>
<path d="M14.668 7.635V8.258H13.373V12.5H12.575V8.258H11.273V7.635H14.668ZM16.9102 8.643L17.9952 11.583L19.1222 8.643H19.9482L17.5822 14.313H16.7562L17.5402 12.437L16.0212 8.643H16.9102ZM22.3484 9.21C22.4837 9.03267 22.6681 8.88333 22.9014 8.762C23.1347 8.64067 23.3984 8.58 23.6924 8.58C24.0284 8.58 24.3341 8.664 24.6094 8.832C24.8894 8.99533 25.1087 9.22633 25.2674 9.525C25.4261 9.82367 25.5054 10.1667 25.5054 10.554C25.5054 10.9413 25.4261 11.289 25.2674 11.597C25.1087 11.9003 24.8894 12.1383 24.6094 12.311C24.3341 12.479 24.0284 12.563 23.6924 12.563C23.3984 12.563 23.1371 12.5047 22.9084 12.388C22.6797 12.2667 22.4931 12.1173 22.3484 11.94V14.334H21.5504V8.643H22.3484V9.21ZM24.6934 10.554C24.6934 10.288 24.6374 10.0593 24.5254 9.868C24.4181 9.672 24.2734 9.525 24.0914 9.427C23.9141 9.32433 23.7227 9.273 23.5174 9.273C23.3167 9.273 23.1254 9.32433 22.9434 9.427C22.7661 9.52967 22.6214 9.679 22.5094 9.875C22.4021 10.071 22.3484 10.302 22.3484 10.568C22.3484 10.834 22.4021 11.0673 22.5094 11.268C22.6214 11.464 22.7661 11.6133 22.9434 11.716C23.1254 11.8187 23.3167 11.87 23.5174 11.87C23.7227 11.87 23.9141 11.8187 24.0914 11.716C24.2734 11.6087 24.4181 11.4547 24.5254 11.254C24.6374 11.0533 24.6934 10.82 24.6934 10.554ZM30.8295 10.463C30.8295 10.5983 30.8202 10.7243 30.8015 10.841H27.8475C27.8709 11.163 27.9852 11.4197 28.1905 11.611C28.3959 11.7977 28.6502 11.891 28.9535 11.891C29.3829 11.891 29.6862 11.7113 29.8635 11.352H30.7245C30.6079 11.7067 30.3955 11.9983 30.0875 12.227C29.7842 12.451 29.4062 12.563 28.9535 12.563C28.5849 12.563 28.2535 12.4813 27.9595 12.318C27.6702 12.15 27.4415 11.9167 27.2735 11.618C27.1102 11.3147 27.0285 10.9647 27.0285 10.568C27.0285 10.1713 27.1079 9.82367 27.2665 9.525C27.4299 9.22167 27.6562 8.98833 27.9455 8.825C28.2395 8.66167 28.5755 8.58 28.9535 8.58C29.3175 8.58 29.6419 8.65933 29.9265 8.818C30.2112 8.97667 30.4329 9.19833 30.5915 9.483C30.7502 9.76767 30.8295 10.0943 30.8295 10.463ZM29.9965 10.267C29.9919 9.95433 29.8869 9.707 29.6815 9.525C29.4809 9.343 29.2265 9.252 28.9185 9.252C28.6385 9.252 28.3982 9.343 28.1975 9.525C28.0015 9.707 27.8872 9.95433 27.8545 10.267H29.9965ZM35.4475 10.057C35.4475 9.581 35.5571 9.154 35.7765 8.776C36.0005 8.398 36.3015 8.104 36.6795 7.894C37.0621 7.67933 37.4798 7.572 37.9325 7.572C38.4505 7.572 38.9101 7.70033 39.3115 7.957C39.7175 8.209 40.0115 8.56833 40.1935 9.035H39.2345C39.1085 8.79233 38.9335 8.61033 38.7095 8.489C38.4855 8.363 38.2265 8.3 37.9325 8.3C37.6105 8.3 37.3235 8.37233 37.0715 8.517C36.8195 8.66167 36.6211 8.867 36.4765 9.133C36.3365 9.399 36.2665 9.707 36.2665 10.057C36.2665 10.407 36.3365 10.7173 36.4765 10.988C36.6211 11.254 36.8195 11.4593 37.0715 11.604C37.3235 11.7487 37.6105 11.821 37.9325 11.821C38.2265 11.821 38.4855 11.7603 38.7095 11.639C38.9335 11.513 39.1085 11.3287 39.2345 11.086H40.1935C40.0115 11.5527 39.7175 11.912 39.3115 12.164C38.9101 12.416 38.4505 12.542 37.9325 12.542C37.4751 12.542 37.0575 12.437 36.6795 12.227C36.3015 12.0123 36.0005 11.716 35.7765 11.338C35.5571 10.96 35.4475 10.533 35.4475 10.057ZM44.1225 8.58C44.4165 8.58 44.6779 8.643 44.9065 8.769C45.1399 8.895 45.3219 9.08167 45.4525 9.329C45.5879 9.57633 45.6555 9.875 45.6555 10.225V12.5H44.8645V10.344C44.8645 9.99867 44.7782 9.735 44.6055 9.553C44.4329 9.36633 44.1972 9.273 43.8985 9.273C43.5999 9.273 43.3619 9.36633 43.1845 9.553C43.0119 9.735 42.9255 9.99867 42.9255 10.344V12.5H42.1275V7.32H42.9255V9.091C43.0609 8.92767 43.2312 8.80167 43.4365 8.713C43.6465 8.62433 43.8752 8.58 44.1225 8.58ZM47.4074 10.554C47.4074 10.1667 47.4868 9.82367 47.6454 9.525C47.8088 9.22633 48.0281 8.99533 48.3034 8.832C48.5834 8.664 48.8914 8.58 49.2274 8.58C49.5308 8.58 49.7944 8.64067 50.0184 8.762C50.2471 8.87867 50.4291 9.02567 50.5644 9.203V8.643H51.3694V12.5H50.5644V11.926C50.4291 12.108 50.2448 12.2597 50.0114 12.381C49.7781 12.5023 49.5121 12.563 49.2134 12.563C48.8821 12.563 48.5788 12.479 48.3034 12.311C48.0281 12.1383 47.8088 11.9003 47.6454 11.597C47.4868 11.289 47.4074 10.9413 47.4074 10.554ZM50.5644 10.568C50.5644 10.302 50.5084 10.071 50.3964 9.875C50.2891 9.679 50.1468 9.52967 49.9694 9.427C49.7921 9.32433 49.6008 9.273 49.3954 9.273C49.1901 9.273 48.9988 9.32433 48.8214 9.427C48.6441 9.525 48.4994 9.672 48.3874 9.868C48.2801 10.0593 48.2264 10.288 48.2264 10.554C48.2264 10.82 48.2801 11.0533 48.3874 11.254C48.4994 11.4547 48.6441 11.6087 48.8214 11.716C49.0034 11.8187 49.1948 11.87 49.3954 11.87C49.6008 11.87 49.7921 11.8187 49.9694 11.716C50.1468 11.6133 50.2891 11.464 50.3964 11.268C50.5084 11.0673 50.5644 10.834 50.5644 10.568ZM54.2156 9.315C54.3322 9.08167 54.4862 8.902 54.6776 8.776C54.8736 8.64533 55.1046 8.58 55.3706 8.58V9.406H55.1676C54.8549 9.406 54.6169 9.48533 54.4536 9.644C54.2949 9.80267 54.2156 10.078 54.2156 10.47V12.5H53.4176V8.643H54.2156V9.315ZM58.0351 9.294V11.429C58.0351 11.5737 58.0678 11.6787 58.1331 11.744C58.2031 11.8047 58.3198 11.835 58.4831 11.835H58.9731V12.5H58.3431C57.9838 12.5 57.7084 12.416 57.5171 12.248C57.3258 12.08 57.2301 11.807 57.2301 11.429V9.294H56.7751V8.643H57.2301V7.684H58.0351V8.643H58.9731V9.294H58.0351Z" fill="white"/>
<path d="M66.5 11.5L64.3349 8.82143H68.6651L66.5 11.5Z" fill="white"/>
</svg>
