<svg width="18" height="20" viewBox="0 0 18 20" fill="none" xmlns="http://www.w3.org/2000/svg">
<path d="M9.81754 2.10033C9.81754 2.10033 8.74605 1.40544 8.20293 1.51318C7.78589 1.59642 7.42658 1.83525 7.19098 2.1858C6.95523 2.53664 6.87162 2.95721 6.95538 3.37058C6.98572 3.51987 7.03736 3.66227 7.10766 3.79453C4.87761 4.4256 3.30064 6.46444 3.30064 8.79745C3.30064 8.95306 3.42791 9.0793 3.58478 9.0793C3.74179 9.0793 3.86892 8.95306 3.86892 8.79745C3.86892 6.58819 5.45492 4.67442 7.63983 4.24651L7.64072 4.24636C7.94025 4.18794 8.24747 4.15843 8.55381 4.15843C8.59702 4.15843 8.59049 4.13391 8.59049 4.13391L9.45085 2.54562L13.2386 9.31094V10.6738C13.2386 11.7737 13.728 12.8088 14.5813 13.5135L14.9231 13.7958C15.2672 14.0799 15.4646 14.4972 15.4646 14.9405V14.9582C15.4646 15.7693 14.7981 16.4292 13.9788 16.4292H3.05409C2.23482 16.4292 1.56828 15.7693 1.56828 14.9582C1.56828 14.7366 1.61919 14.5144 1.71538 14.3155C1.81187 14.1158 1.95468 13.937 2.12857 13.7982L2.4793 13.5177C3.3625 12.8124 3.86892 11.7633 3.86892 10.6396V10.0217C3.86892 9.86612 3.74179 9.73988 3.58478 9.73988C3.42791 9.73988 3.30064 9.86612 3.30064 10.0217V10.6396C3.30064 11.5918 2.87147 12.4808 2.12279 13.0787L1.77206 13.3593C1.53276 13.5502 1.33579 13.7967 1.20304 14.0717C1.07015 14.3462 1 14.6528 1 14.9582C1 16.0801 1.92153 16.9929 3.05424 16.9929H6.02867C6.02778 17.0208 6.0269 17.0485 6.0269 17.0763C6.0269 18.436 7.14377 19.5423 8.51652 19.5423C9.88926 19.5423 11.006 18.436 11.006 17.0763C11.006 17.0485 11.0052 17.0208 11.0042 16.9929H13.9789C15.1115 16.9929 16.033 16.0801 16.033 14.9582V14.9405C16.033 14.3291 15.761 13.7541 15.2869 13.3626L14.945 13.0803C14.2218 12.483 13.807 11.6059 13.807 10.6738V9.26969L13.2386 9.31094L9.45085 2.54562L9.81754 2.10033ZM10.4377 17.0763C10.4377 18.1251 9.57582 18.9784 8.51652 18.9784C7.45706 18.9784 6.59517 18.1251 6.59517 17.0763C6.59517 17.0485 6.59591 17.0206 6.5971 16.9929H10.4358C10.4371 17.0206 10.4377 17.0485 10.4377 17.0763ZM8.55381 3.59474C8.26627 3.59474 7.97828 3.61837 7.69488 3.66432C7.60505 3.54527 7.5426 3.40743 7.51256 3.25931C7.45869 2.99391 7.51256 2.7238 7.6638 2.49847C7.81534 2.273 8.0465 2.1193 8.31466 2.06587C8.69928 1.98939 9.2154 2.24821 9.45085 2.54562L8.86394 3.61377C8.86394 3.61377 8.63683 3.59474 8.55381 3.59474Z" fill="white"/>
<path d="M9.45085 2.54562L8.59049 4.13391C8.59049 4.13391 8.59702 4.15843 8.55381 4.15843C8.24747 4.15843 7.94025 4.18794 7.64072 4.24636L7.63983 4.24651C5.45492 4.67442 3.86892 6.58819 3.86892 8.79745C3.86892 8.95306 3.74179 9.0793 3.58478 9.0793C3.42791 9.0793 3.30064 8.95306 3.30064 8.79745C3.30064 6.46444 4.87761 4.4256 7.10766 3.79453C7.03736 3.66227 6.98572 3.51987 6.95538 3.37058C6.87162 2.95721 6.95523 2.53664 7.19098 2.1858C7.42658 1.83525 7.78589 1.59642 8.20293 1.51318C8.74605 1.40544 9.81754 2.10033 9.81754 2.10033L9.45085 2.54562ZM9.45085 2.54562L13.2386 9.31094M9.45085 2.54562C9.2154 2.24821 8.69928 1.98939 8.31466 2.06587C8.0465 2.1193 7.81534 2.273 7.6638 2.49847C7.51256 2.7238 7.45869 2.99391 7.51256 3.25931C7.5426 3.40743 7.60505 3.54527 7.69488 3.66432C7.97828 3.61837 8.26627 3.59474 8.55381 3.59474C8.63683 3.59474 8.86394 3.61377 8.86394 3.61377L9.45085 2.54562ZM13.2386 9.31094V10.6738C13.2386 11.7737 13.728 12.8088 14.5813 13.5135L14.9231 13.7958C15.2672 14.0799 15.4646 14.4972 15.4646 14.9405V14.9582C15.4646 15.7693 14.7981 16.4292 13.9788 16.4292H3.05409C2.23482 16.4292 1.56828 15.7693 1.56828 14.9582C1.56828 14.7366 1.61919 14.5144 1.71538 14.3155C1.81187 14.1158 1.95468 13.937 2.12857 13.7982L2.4793 13.5177C3.3625 12.8124 3.86892 11.7633 3.86892 10.6396V10.0217C3.86892 9.86612 3.74179 9.73988 3.58478 9.73988C3.42791 9.73988 3.30064 9.86612 3.30064 10.0217V10.6396C3.30064 11.5918 2.87147 12.4808 2.12279 13.0787L1.77206 13.3593C1.53276 13.5502 1.33579 13.7967 1.20304 14.0717C1.07015 14.3462 1 14.6528 1 14.9582C1 16.0801 1.92153 16.9929 3.05424 16.9929H6.02867C6.02778 17.0208 6.02689 17.0485 6.02689 17.0763C6.02689 18.436 7.14377 19.5423 8.51652 19.5423C9.88926 19.5423 11.006 18.436 11.006 17.0763C11.006 17.0485 11.0052 17.0208 11.0042 16.9929H13.9789C15.1115 16.9929 16.033 16.0801 16.033 14.9582V14.9405C16.033 14.3291 15.761 13.7541 15.2869 13.3626L14.945 13.0803C14.2218 12.483 13.807 11.6059 13.807 10.6738V9.26969L13.2386 9.31094ZM10.4377 17.0763C10.4377 18.1251 9.57582 18.9784 8.51652 18.9784C7.45706 18.9784 6.59517 18.1251 6.59517 17.0763C6.59517 17.0485 6.59591 17.0206 6.5971 16.9929H10.4358C10.4371 17.0206 10.4377 17.0485 10.4377 17.0763Z" stroke="white" stroke-width="0.2"/>
<circle cx="12.8923" cy="4.916" r="4.45824" fill="#00E8E8"/>
<path d="M12.9252 7.03607C13.0822 7.03607 13.2094 6.90997 13.2094 6.75422V3.24259C13.2094 3.13088 13.1431 3.02988 13.0401 2.98467C12.9372 2.93961 12.8172 2.95898 12.734 3.03414L12.1246 3.58448C12.0086 3.68929 12.0001 3.8675 12.1057 3.98259C12.2113 4.09767 12.391 4.10604 12.5072 4.00123L12.6411 3.88027V6.75422C12.6411 6.90997 12.7684 7.03607 12.9252 7.03607Z" fill="white"/>
</svg>
